# xmcd CD database file
#
# Track frame offsets:
#	150
#	22860
#	54263
#	71730
#	87329
#	97747
#	121330
#	137353
#	151135
#	160748
#	174580
#	186187
#
# Disc length: 2652 seconds
#
# Revision: 1
# Processed by: cddbd v1.5.1PL2 Copyright (c) Steve Scherf et al.
# Submitted via: CDex 1.50
#
DISCID=880a5a0c
DTITLE=B.B. King - B.B. King Disc 2
DYEAR=2005
DGENRE=Blues
TTITLE0=Everyday I have The Blues
TTITLE1=All Over Again
TTITLE2=That Evil Child
TTITLE3=The Letter
TTITLE4=I'm Willing to Run All The Way
TTITLE5=You've Done Lost Your Good Thing Now
TTITLE6=It's My Own Fault
TTITLE7=Jesus Gave Me Water
TTITLE8=Swing Low, Sweet Chariot/Rock Me Lord
TTITLE9=Save A Seat For Me
TTITLE10=Never Heard A Man
TTITLE11=I'm Working On The Building
EXTD=YEAR: 2005
EXTT0=
EXTT1=
EXTT2=
EXTT3=
EXTT4=
EXTT5=
EXTT6=
EXTT7=
EXTT8=
EXTT9=
EXTT10=
EXTT11=
PLAYORDER=
